<svg xmlns="http://www.w3.org/2000/svg" id="Layer_1" data-name="Layer 1" viewBox="0 0 103.85 42.9">
    <defs>
        <style>
            .cls-1{fill:#ff694d;}.cls-2{font-size:18px;font-family:Bariol-Regular, Bariol;}.cls-3{letter-spacing:-0.01em;}.cls-4{letter-spacing:0em;}
        </style>
    </defs>
    <title>
        krcreativeagency
    </title>
    <path d="M22.7,1.4h1.1c5.7,0,10.9,2.4,15.5,7.1a21.14,21.14,0,0,1,5.4,13.8v.9c0,1-.7,1.8-2.2,2.3h-.8a2.71,2.71,0,0,1-2.4-3c0-4.9-2.2-9.1-6.5-12.7a16.24,16.24,0,0,0-9.4-3.1h-.5c-5.4,0-9.8,2.5-13.4,7.4A17,17,0,0,0,7,22.6v.5c0,5.4,2.5,9.8,7.4,13.4A17.53,17.53,0,0,0,23.7,39c1.3.6,2,1.3,2,2.3V42c0,1.1-.7,1.8-2.2,2.3h-.9c-5.7,0-10.9-2.4-15.5-7.2A21.14,21.14,0,0,1,1.7,23.3V22.2c0-5.7,2.4-10.9,7.2-15.5A21.55,21.55,0,0,1,22.7,1.4Z" transform="translate(-1.7 -1.4)"/>
    <path d="M29.7,11.5c1.7.3,2.5,1.2,2.5,2.5v.3c0,1-1.2,2.8-3.5,5.3a21.41,21.41,0,0,1-5.1,3.9v.1c1.6.7,3.7,2.4,6.2,5.1q2.4,3,2.4,4.2v.4c0,1.1-.7,1.8-2.1,2.3h-.4a2.94,2.94,0,0,1-2.7-2,15.9,15.9,0,0,0-9-6.7,18.35,18.35,0,0,0-5.3-.7c-1.3-.6-2-1.3-2-2.3v-.6c0-1.1.7-1.9,2.2-2.3a16,16,0,0,0,13.9-7.3A3.2,3.2,0,0,1,29.7,11.5Z" class="cls-1" transform="translate(-1.7 -1.4)"/>
    <text class="cls-2" transform="translate(48.96 18.31)">
        c<tspan x="7.94" y="0" class="cls-3">r</tspan><tspan x="13.32" y="0" class="cls-4">eative</tspan><tspan class="cls-1"><tspan x="0" y="17">agency</tspan></tspan>
    </text>
</svg>
