<?xml version="1.0" encoding="utf-8"?>
<!-- Generator: Adobe Illustrator 23.0.1, SVG Export Plug-In . SVG Version: 6.00 Build 0)  -->
<svg version="1.1" id="Layer_1" xmlns="http://www.w3.org/2000/svg" xmlns:xlink="http://www.w3.org/1999/xlink" x="0px" y="0px"
	 viewBox="0 0 109.4 45.9" style="enable-background:new 0 0 109.4 45.9;" xml:space="preserve">
<style type="text/css">
	.st0{fill:#FFFFFF;}
	.st1{fill:#FF694D;}
</style>
<g>
	<path class="st0" d="M22.7,1.4h1.1c5.7,0,10.9,2.4,15.5,7.1c3.6,4.3,5.4,8.9,5.4,13.8v0.9c0,1-0.7,1.8-2.2,2.3h-0.8
		c-1.6-0.3-2.4-1.3-2.4-3c0-4.9-2.2-9.1-6.5-12.7c-3-2.1-6.2-3.1-9.4-3.1h-0.5c-5.4,0-9.8,2.5-13.4,7.4C7.9,16.9,7,19.7,7,22.6v0.5
		c0,5.4,2.5,9.8,7.4,13.4c2.8,1.7,5.9,2.5,9.3,2.5c1.3,0.6,2,1.3,2,2.3V42c0,1.1-0.7,1.8-2.2,2.3h-0.9c-5.7,0-10.9-2.4-15.5-7.2
		c-3.6-4.3-5.4-8.9-5.4-13.8v-1.1c0-5.7,2.4-10.9,7.2-15.5C13.2,3.2,17.8,1.4,22.7,1.4z"/>
</g>
<path class="st1" d="M29.7,11.5c1.7,0.3,2.5,1.2,2.5,2.5v0.3c0,1-1.2,2.8-3.5,5.3c-2.1,2-3.8,3.3-5.1,3.9v0.1
	c1.6,0.7,3.7,2.4,6.2,5.1c1.6,2,2.4,3.4,2.4,4.2v0.4c0,1.1-0.7,1.8-2.1,2.3h-0.4c-1.2,0-2.1-0.7-2.7-2c-1.8-3-4.8-5.3-9-6.7
	c-1.7-0.5-3.4-0.7-5.3-0.7c-1.3-0.6-2-1.3-2-2.3v-0.6c0-1.1,0.7-1.9,2.2-2.3c5.9,0,10.5-2.4,13.9-7.3C27.5,12.2,28.5,11.5,29.7,11.5
	z"/>
<g>
	<path class="st0" d="M55,11.3c1.6,0,2.5,0.8,2.8,1.2c0.1,0.1,0.1,0.2,0.1,0.3c0,0.3-0.2,0.5-0.5,0.5c-0.2,0-0.3-0.1-0.4-0.2
		c-0.3-0.3-0.8-0.8-1.9-0.8c-1.7,0-2.5,1.1-2.5,3.3c0,2.3,0.9,3.3,2.5,3.3c1,0,1.7-0.5,2.1-0.8c0.1-0.1,0.2-0.1,0.3-0.1
		c0.3,0,0.5,0.2,0.5,0.5c0,0.2-0.1,0.3-0.2,0.5c-0.4,0.3-1.3,1-2.7,1c-2.3,0-3.7-1.4-3.7-4.3C51.3,12.6,52.7,11.3,55,11.3z"/>
	<path class="st0" d="M60.9,12.8c0.4-0.8,1.3-1.4,2.5-1.4c0.3,0,0.6,0.3,0.6,0.6s-0.3,0.6-0.6,0.6c-1.7,0-2.5,1.2-2.5,2.8v4
		c0,0.3-0.3,0.6-0.6,0.6c-0.3,0-0.6-0.3-0.6-0.6V12c0-0.3,0.3-0.6,0.6-0.6c0.3,0,0.6,0.3,0.6,0.6V12.8z"/>
	<path class="st0" d="M68.3,11.3c2.9,0,3.4,2.3,3.4,3.5c0,0.5,0,1.2-0.7,1.2h-5.3c0,1.8,1,2.9,2.7,2.9c1,0,1.7-0.4,2.2-0.8
		C70.8,18,70.8,18,71,18c0.3,0,0.5,0.2,0.5,0.5c0,0.2-0.1,0.3-0.2,0.4c-0.3,0.3-1.2,1-2.8,1c-2.4,0-3.9-1.3-3.9-4.3
		C64.6,12.8,66,11.3,68.3,11.3z M68.3,12.3c-1.6,0-2.4,1-2.5,2.6h4.8C70.6,13.6,70.2,12.3,68.3,12.3z"/>
	<path class="st0" d="M74.5,13.3c-0.2,0.2-0.3,0.3-0.5,0.3c-0.3,0-0.5-0.2-0.5-0.5c0-0.1,0-0.2,0.1-0.3c0.5-0.8,1.5-1.4,3-1.4
		c2.1,0,3.2,1.2,3.2,3.1v5c0,0.3-0.3,0.6-0.6,0.6c-0.3,0-0.6-0.3-0.6-0.6v-0.6c-0.5,0.8-1.5,1.3-2.6,1.3c-1.9,0-3.1-0.9-3.1-2.6
		c0-1.6,1.2-2.5,3.2-2.5h2.5v-0.5c0-1.2-0.8-2-2.1-2C75.6,12.4,75,12.6,74.5,13.3z M78.7,16.6v-0.8h-2.5c-1.2,0-2,0.5-2,1.5
		c0,0.9,0.6,1.5,2.1,1.5C77.5,18.9,78.7,18.1,78.7,16.6z"/>
	<path class="st0" d="M82.4,9.6c0-0.3,0.3-0.6,0.6-0.6c0.3,0,0.6,0.3,0.6,0.6v1.9h1.2c0.3,0,0.5,0.2,0.5,0.5s-0.2,0.5-0.5,0.5h-1.2
		v5c0,0.8,0.4,1.2,1,1.2c0.3,0,0.6,0.2,0.6,0.5s-0.3,0.5-0.6,0.5c-1.4,0-2.2-1-2.2-2.3v-5h-0.7c-0.3,0-0.5-0.2-0.5-0.5
		s0.2-0.5,0.5-0.5h0.7V9.6z"/>
	<path class="st0" d="M86.8,9c0-0.5,0.3-0.7,0.7-0.7s0.7,0.2,0.7,0.7c0,0.4-0.3,0.7-0.7,0.7S86.8,9.4,86.8,9z M88.1,19.3
		c0,0.3-0.3,0.6-0.6,0.6S87,19.6,87,19.3V12c0-0.3,0.3-0.6,0.6-0.6s0.6,0.3,0.6,0.6V19.3z"/>
	<path class="st0" d="M92.7,19.5l-3.1-7.3c0-0.1-0.1-0.1-0.1-0.3c0-0.3,0.3-0.6,0.6-0.6s0.5,0.2,0.5,0.4l2.5,6.2l2.5-6.2
		c0.1-0.2,0.2-0.4,0.5-0.4s0.6,0.3,0.6,0.6c0,0.1,0,0.2-0.1,0.3l-3.1,7.3c-0.1,0.2-0.3,0.4-0.5,0.4C93,19.9,92.8,19.7,92.7,19.5z"/>
	<path class="st0" d="M101.5,11.3c2.9,0,3.4,2.3,3.4,3.5c0,0.5,0,1.2-0.7,1.2H99c0,1.8,1,2.9,2.7,2.9c1,0,1.7-0.4,2.2-0.8
		c0.1-0.1,0.2-0.1,0.3-0.1c0.3,0,0.5,0.2,0.5,0.5c0,0.2-0.1,0.3-0.2,0.4c-0.3,0.3-1.2,1-2.8,1c-2.4,0-3.9-1.3-3.9-4.3
		C97.8,12.8,99.2,11.3,101.5,11.3z M101.5,12.3c-1.6,0-2.4,1-2.5,2.6h4.8C103.8,13.6,103.4,12.3,101.5,12.3z"/>
	<path class="st1" d="M52.8,30.3c-0.2,0.2-0.3,0.3-0.5,0.3c-0.3,0-0.5-0.2-0.5-0.5c0-0.1,0-0.2,0.1-0.3c0.5-0.8,1.5-1.4,3-1.4
		c2.1,0,3.2,1.2,3.2,3.1v5c0,0.3-0.3,0.6-0.6,0.6c-0.3,0-0.6-0.3-0.6-0.6v-0.6c-0.5,0.8-1.5,1.3-2.6,1.3c-1.9,0-3.1-0.9-3.1-2.6
		c0-1.6,1.2-2.5,3.2-2.5H57v-0.5c0-1.2-0.8-2-2.1-2C53.9,29.4,53.3,29.6,52.8,30.3z M57,33.6v-0.8h-2.5c-1.2,0-2,0.5-2,1.5
		c0,0.9,0.6,1.5,2.1,1.5C55.8,35.9,57,35.1,57,33.6z"/>
	<path class="st1" d="M65.1,28.7c0.3-0.6,0.7-1,1.6-1c0.3,0,0.5,0.2,0.5,0.5s-0.2,0.5-0.5,0.5c-0.5,0-0.7,0.3-0.9,0.6
		c0.4,0.5,0.6,1.2,0.6,1.9c0,1.8-1.2,3-3.3,3c-0.8,0-1.4-0.2-1.9-0.5c-0.2,0.2-0.3,0.4-0.3,0.6c0,0.4,0.3,0.8,1.3,0.8h1.9
		c1.7,0,3.2,0.8,3.2,2.4c0,1.9-1.7,2.6-3.9,2.6c-1.9,0-3.8-0.5-3.8-2.5c0-0.8,0.5-1.5,1.4-1.8c-0.7-0.2-1.1-0.8-1.1-1.5
		c0-0.5,0.3-1,0.7-1.3c-0.4-0.5-0.6-1.2-0.6-2c0-1.8,1.2-3,3.3-3C63.9,28.3,64.6,28.4,65.1,28.7z M64.1,36.4h-1.9
		c-1,0.2-1.5,0.7-1.5,1.4c0,1.1,1.3,1.5,2.7,1.5c1.4,0,2.7-0.4,2.7-1.6C66.1,36.7,65.3,36.4,64.1,36.4z M65.3,31.3
		c0-1.2-0.8-2-2.1-2c-1.4,0-2.1,0.8-2.1,2s0.8,2,2.1,2C64.6,33.3,65.3,32.5,65.3,31.3z"/>
	<path class="st1" d="M72,28.3c2.9,0,3.4,2.3,3.4,3.5c0,0.5,0,1.2-0.7,1.2h-5.3c0,1.8,1,2.9,2.7,2.9c1,0,1.7-0.4,2.2-0.8
		c0.1-0.1,0.2-0.1,0.3-0.1c0.3,0,0.5,0.2,0.5,0.5c0,0.2-0.1,0.3-0.2,0.4c-0.3,0.3-1.2,1-2.8,1c-2.4,0-3.9-1.3-3.9-4.3
		C68.3,29.8,69.7,28.3,72,28.3z M72,29.3c-1.6,0-2.4,1-2.5,2.6h4.8C74.3,30.6,73.9,29.3,72,29.3z"/>
	<path class="st1" d="M84.1,31.5v4.8c0,0.3-0.3,0.6-0.6,0.6s-0.6-0.3-0.6-0.6v-4.6c0-1.4-0.4-2.4-2.2-2.4c-1.8,0-2.4,1.1-2.4,2.5
		v4.4c0,0.3-0.3,0.6-0.6,0.6c-0.3,0-0.6-0.3-0.6-0.6V29c0-0.3,0.3-0.6,0.6-0.6c0.3,0,0.6,0.3,0.6,0.6v0.6c0.3-0.7,1.2-1.3,2.4-1.3
		C83.6,28.3,84.1,29.9,84.1,31.5z"/>
	<path class="st1" d="M89.4,28.3c1.6,0,2.5,0.8,2.8,1.2c0.1,0.1,0.1,0.2,0.1,0.3c0,0.3-0.2,0.5-0.5,0.5c-0.2,0-0.3-0.1-0.4-0.2
		c-0.3-0.3-0.8-0.8-1.9-0.8c-1.7,0-2.5,1.1-2.5,3.3c0,2.3,0.9,3.3,2.5,3.3c1,0,1.7-0.5,2.1-0.8c0.1-0.1,0.2-0.1,0.3-0.1
		c0.3,0,0.5,0.2,0.5,0.5c0,0.2-0.1,0.3-0.2,0.5c-0.4,0.3-1.3,1-2.7,1c-2.3,0-3.7-1.4-3.7-4.3C85.7,29.6,87.1,28.3,89.4,28.3z"/>
	<path class="st1" d="M96.4,36.4l-3-7.1c0-0.1-0.1-0.1-0.1-0.3c0-0.3,0.3-0.6,0.6-0.6s0.5,0.2,0.5,0.4L97,35l2.5-6.2
		c0.1-0.2,0.2-0.4,0.5-0.4s0.6,0.3,0.6,0.6c0,0.1,0,0.2-0.1,0.3L97,37.7c-0.7,1.8-1.7,2.7-3.4,2.7c-0.3,0-0.5-0.2-0.5-0.5
		c0-0.3,0.2-0.5,0.5-0.5C95.2,39.2,95.6,38.2,96.4,36.4z"/>
</g>
</svg>
